<svg width="214" height="25" viewBox="0 0 214 25" fill="none" xmlns="http://www.w3.org/2000/svg">
<path d="M14.6562 20.3438V24H3.20312V20.3438H14.6562ZM4.71875 1.25V24H0.03125V1.25H4.71875Z" fill="#F0CF68"/>
<path d="M22.3281 1.25V24H17.6562V1.25H22.3281Z" fill="#F0CF68"/>
<path d="M36.4219 1.25V24H31.75V1.25H36.4219ZM43.4219 1.25V4.92188H24.8594V1.25H43.4219Z" fill="#F0CF68"/>
<path d="M56.5156 1.25V24H51.8438V1.25H56.5156ZM63.5156 1.25V4.92188H44.9531V1.25H63.5156Z" fill="#F0CF68"/>
<path d="M80.8125 20.3438V24H69.3594V20.3438H80.8125ZM70.875 1.25V24H66.1875V1.25H70.875Z" fill="#F0CF68"/>
<path d="M98.7656 20.3438V24H86.6562V20.3438H98.7656ZM88.1875 1.25V24H83.5V1.25H88.1875ZM97.1875 10.5156V14.0781H86.6562V10.5156H97.1875ZM98.75 1.25V4.92188H86.6562V1.25H98.75Z" fill="#F0CF68"/>
<path d="M124.094 20.3438V24H112.641V20.3438H124.094ZM114.156 1.25V24H109.469V1.25H114.156Z" fill="#F0CF68"/>
<path d="M142.047 20.3438V24H129.938V20.3438H142.047ZM131.469 1.25V24H126.781V1.25H131.469ZM140.469 10.5156V14.0781H129.938V10.5156H140.469ZM142.031 1.25V4.92188H129.938V1.25H142.031Z" fill="#F0CF68"/>
<path d="M146.922 1.25H150.891L156.734 17.9531L162.578 1.25H166.547L158.328 24H155.141L146.922 1.25ZM144.781 1.25H148.734L149.453 17.5312V24H144.781V1.25ZM164.734 1.25H168.703V24H164.016V17.5312L164.734 1.25Z" fill="#F0CF68"/>
<path d="M191.5 12.0938V13.1719C191.5 14.901 191.266 16.4531 190.797 17.8281C190.328 19.2031 189.667 20.375 188.812 21.3438C187.958 22.3021 186.938 23.0365 185.75 23.5469C184.573 24.0573 183.266 24.3125 181.828 24.3125C180.401 24.3125 179.094 24.0573 177.906 23.5469C176.729 23.0365 175.708 22.3021 174.844 21.3438C173.979 20.375 173.307 19.2031 172.828 17.8281C172.359 16.4531 172.125 14.901 172.125 13.1719V12.0938C172.125 10.3542 172.359 8.80208 172.828 7.4375C173.297 6.0625 173.958 4.89062 174.812 3.92188C175.677 2.95312 176.698 2.21354 177.875 1.70312C179.062 1.19271 180.37 0.9375 181.797 0.9375C183.234 0.9375 184.542 1.19271 185.719 1.70312C186.906 2.21354 187.927 2.95312 188.781 3.92188C189.646 4.89062 190.312 6.0625 190.781 7.4375C191.26 8.80208 191.5 10.3542 191.5 12.0938ZM186.766 13.1719V12.0625C186.766 10.8542 186.656 9.79167 186.438 8.875C186.219 7.95833 185.896 7.1875 185.469 6.5625C185.042 5.9375 184.521 5.46875 183.906 5.15625C183.292 4.83333 182.589 4.67188 181.797 4.67188C181.005 4.67188 180.302 4.83333 179.688 5.15625C179.083 5.46875 178.568 5.9375 178.141 6.5625C177.724 7.1875 177.406 7.95833 177.188 8.875C176.969 9.79167 176.859 10.8542 176.859 12.0625V13.1719C176.859 14.3698 176.969 15.4323 177.188 16.3594C177.406 17.276 177.729 18.0521 178.156 18.6875C178.583 19.3125 179.104 19.7865 179.719 20.1094C180.333 20.4323 181.036 20.5938 181.828 20.5938C182.62 20.5938 183.323 20.4323 183.938 20.1094C184.552 19.7865 185.068 19.3125 185.484 18.6875C185.901 18.0521 186.219 17.276 186.438 16.3594C186.656 15.4323 186.766 14.3698 186.766 13.1719Z" fill="#F0CF68"/>
<path d="M213.391 1.25V24H208.703L199.562 8.75V24H194.875V1.25H199.562L208.719 16.5156V1.25H213.391Z" fill="#F0CF68"/>
</svg>
