<svg width="208" height="27" viewBox="0 0 208 27" fill="none" xmlns="http://www.w3.org/2000/svg">
<path d="M15.5929 3.59321C12.9025 2.2233 10.136 1.79858 7.80297 2.39722C7.57154 2.45664 7.34269 2.44679 7.15879 2.36961C6.47029 2.08046 5.70587 2.12801 5.06156 2.5C4.41725 2.87199 3.99387 3.51022 3.89999 4.251C3.87489 4.44886 3.76904 4.65194 3.60187 4.82266C1.91688 6.54382 0.901402 9.15199 0.742631 12.1669C0.593822 14.993 1.22486 17.8546 2.47398 20.0182C3.72309 22.1817 5.88581 24.159 8.40765 25.4431C11.098 26.813 13.8645 27.2378 16.1975 26.6391C16.429 26.5797 16.6578 26.5895 16.8417 26.6667C17.5303 26.9558 18.2947 26.9083 18.9389 26.5363C19.5832 26.1644 20.0066 25.5261 20.1005 24.7853C20.1256 24.5875 20.2315 24.3844 20.3986 24.2137C22.0836 22.4925 23.0991 19.8843 23.2579 16.8694C23.4067 14.0433 22.7756 11.1817 21.5265 9.01817C20.2774 6.85464 18.1147 4.87733 15.5929 3.59321ZM22.3599 16.8221C22.2126 19.6183 21.2879 22.0199 19.7561 23.5846C19.4526 23.8947 19.2581 24.2809 19.2085 24.6723C19.1502 25.1318 18.8881 25.5274 18.4894 25.7576C18.0906 25.9878 17.617 26.017 17.1899 25.8376C16.8262 25.6849 16.3944 25.6603 15.9741 25.7681C13.8531 26.3124 11.3109 25.9123 8.81569 24.6418C6.4448 23.4346 4.41713 21.5854 3.25269 19.5686C2.08825 17.5517 1.50068 14.8711 1.64061 12.2143C1.78791 9.41805 2.71262 7.01643 4.24445 5.45174C4.54796 5.14167 4.74242 4.75543 4.79203 4.36408C4.85031 3.90453 5.1124 3.50894 5.51115 3.27871C5.90991 3.04849 6.38355 3.01931 6.81065 3.1987C7.17429 3.35139 7.60607 3.37607 8.02644 3.26828C10.1474 2.72397 12.6896 3.12401 15.1848 4.39458C17.5557 5.60174 19.5834 7.45089 20.7478 9.46776C21.9123 11.4846 22.4998 14.1652 22.3599 16.8221Z" fill="#F0CF68"/>
<path d="M14.4256 24.0774C14.0882 24.099 13.7354 24.0941 13.3768 24.0628C13.1295 24.0413 12.9114 24.2242 12.8898 24.4716C12.8682 24.719 13.0512 24.937 13.2986 24.9586C13.7022 24.9938 14.1007 24.9992 14.4831 24.9747C14.5545 24.9701 14.6209 24.9491 14.6789 24.9157C14.8223 24.8329 14.9143 24.6737 14.9031 24.4973C14.8871 24.2495 14.6734 24.0615 14.4256 24.0774Z" fill="#F0CF68"/>
<path d="M10.1848 4.0487C9.80146 4.03943 9.42355 4.05854 9.06163 4.10546C8.81554 4.13733 8.64168 4.36287 8.67359 4.60913C8.70551 4.8554 8.93103 5.02913 9.1773 4.99722C9.49386 4.95614 9.82548 4.93946 10.163 4.94761C10.2486 4.94967 10.3292 4.92773 10.3983 4.88783C10.5296 4.81203 10.6194 4.67171 10.6233 4.50908C10.6293 4.26077 10.433 4.0547 10.1848 4.0487Z" fill="#F0CF68"/>
<path d="M7.33617 20.7097C7.15693 20.5379 6.87245 20.5444 6.70049 20.7234C6.52876 20.9027 6.53489 21.1873 6.71423 21.3591C8.24559 22.8257 10.2218 23.9843 12.136 24.5379C12.2583 24.5733 12.3835 24.5544 12.4857 24.4954C12.5828 24.4393 12.6592 24.3471 12.6928 24.2309C12.7618 23.9924 12.6243 23.7431 12.3858 23.6742C10.6066 23.1596 8.76608 22.079 7.33617 20.7097Z" fill="#F0CF68"/>
<path d="M17.9662 7.60671C16.2657 5.97874 14.0854 4.76729 11.984 4.2831C11.742 4.22734 11.5007 4.37828 11.445 4.62028C11.3892 4.86222 11.5402 5.10357 11.7822 5.15933C13.7302 5.60819 15.7576 6.73701 17.3444 8.25628C17.4921 8.39768 17.7113 8.41841 17.8799 8.32106C17.916 8.30023 17.9497 8.27398 17.98 8.24238C18.1518 8.06306 18.1456 7.77848 17.9662 7.60671Z" fill="#F0CF68"/>
<path d="M6.58175 9.92861C6.47948 9.98766 6.40274 10.0873 6.37254 10.2017C6.34152 10.3158 6.35814 10.4405 6.41719 10.5428C6.47623 10.645 6.57591 10.7218 6.69025 10.752C6.80438 10.783 6.92907 10.7664 7.03134 10.7073C7.13361 10.6483 7.21035 10.5486 7.24055 10.4343C7.27156 10.3201 7.25495 10.1954 7.1959 10.0932C7.13685 9.9909 7.03718 9.91417 6.92283 9.88397C6.80871 9.85295 6.68402 9.86957 6.58175 9.92861Z" fill="#F0CF68"/>
<path d="M11.8695 8.53697C11.7673 8.59602 11.6905 8.69569 11.6603 8.81004C11.6293 8.92416 11.6456 9.04828 11.705 9.15112C11.7643 9.25386 11.8637 9.33013 11.978 9.36033C12.0922 9.39135 12.2169 9.37473 12.3191 9.31569C12.4214 9.25664 12.4981 9.15696 12.5283 9.04262C12.5593 8.9285 12.5427 8.8038 12.4837 8.70153C12.4246 8.59926 12.325 8.52253 12.2106 8.49233C12.0965 8.46131 11.9723 8.47762 11.8695 8.53697Z" fill="#F0CF68"/>
<path d="M7.38252 16.1113C7.28025 16.1704 7.20352 16.27 7.17332 16.3844C7.1423 16.4985 7.15892 16.6232 7.21796 16.7255C7.27701 16.8277 7.37669 16.9045 7.49103 16.9347C7.60515 16.9657 7.72985 16.9491 7.83212 16.89C7.93439 16.831 8.01112 16.7313 8.04132 16.617C8.07234 16.5028 8.05572 16.3782 7.99668 16.2759C7.93733 16.1731 7.83795 16.0969 7.72361 16.0667C7.60949 16.0357 7.48532 16.052 7.38252 16.1113Z" fill="#F0CF68"/>
<path d="M17.3673 14.2229C17.265 14.2819 17.1883 14.3816 17.1581 14.4959C17.1271 14.6101 17.1437 14.7347 17.2028 14.837C17.2618 14.9393 17.3615 15.016 17.4758 15.0462C17.5899 15.0772 17.7146 15.0606 17.8169 15.0016C17.9192 14.9425 17.9959 14.8429 18.0261 14.7285C18.0571 14.6144 18.0405 14.4897 17.9815 14.3874C17.9224 14.2851 17.8227 14.2084 17.7084 14.1782C17.5943 14.1472 17.4696 14.1638 17.3673 14.2229Z" fill="#F0CF68"/>
<path d="M16.4045 18.979C16.3022 19.0381 16.2255 19.1378 16.1953 19.2521C16.1643 19.3662 16.1806 19.4903 16.2399 19.5932C16.2992 19.6959 16.3987 19.7722 16.513 19.8024C16.6276 19.8331 16.7518 19.8168 16.8541 19.7577C16.9564 19.6987 17.0331 19.599 17.0633 19.4847C17.094 19.37 17.0777 19.2459 17.0186 19.1436C16.9596 19.0413 16.8599 18.9646 16.7456 18.9344C16.6315 18.9034 16.5068 18.92 16.4045 18.979Z" fill="#F0CF68"/>
<path d="M52.5123 22.3594V24H40.7155V22.3594H52.5123ZM41.278 1.25V24H39.3561V1.25H41.278Z" fill="#F0CF68"/>
<path d="M57.8717 7.09375V24H56.0123V7.09375H57.8717ZM55.6842 2.20312C55.6842 1.84896 55.7936 1.55208 56.0123 1.3125C56.2415 1.0625 56.554 0.9375 56.9498 0.9375C57.3457 0.9375 57.6582 1.0625 57.8873 1.3125C58.1269 1.55208 58.2467 1.84896 58.2467 2.20312C58.2467 2.54688 58.1269 2.84375 57.8873 3.09375C57.6582 3.33333 57.3457 3.45312 56.9498 3.45312C56.554 3.45312 56.2415 3.33333 56.0123 3.09375C55.7936 2.84375 55.6842 2.54688 55.6842 2.20312Z" fill="#F0CF68"/>
<path d="M69.3717 7.09375V8.625H60.903V7.09375H69.3717ZM64.0123 2.75H65.8717V19.8906C65.8717 20.6719 65.9759 21.2604 66.1842 21.6562C66.3925 22.0521 66.6634 22.3177 66.9967 22.4531C67.33 22.5885 67.6894 22.6562 68.0748 22.6562C68.3561 22.6562 68.6269 22.6406 68.8873 22.6094C69.1478 22.5677 69.3821 22.526 69.5905 22.4844L69.6686 24.0625C69.4394 24.1354 69.1425 24.1927 68.778 24.2344C68.4134 24.2865 68.0488 24.3125 67.6842 24.3125C66.9655 24.3125 66.33 24.1823 65.778 23.9219C65.2259 23.651 64.7936 23.1927 64.4811 22.5469C64.1686 21.8906 64.0123 21 64.0123 19.875V2.75Z" fill="#F0CF68"/>
<path d="M79.6842 7.09375V8.625H71.2155V7.09375H79.6842ZM74.3248 2.75H76.1842V19.8906C76.1842 20.6719 76.2884 21.2604 76.4967 21.6562C76.705 22.0521 76.9759 22.3177 77.3092 22.4531C77.6425 22.5885 78.0019 22.6562 78.3873 22.6562C78.6686 22.6562 78.9394 22.6406 79.1998 22.6094C79.4603 22.5677 79.6946 22.526 79.903 22.4844L79.9811 24.0625C79.7519 24.1354 79.455 24.1927 79.0905 24.2344C78.7259 24.2865 78.3613 24.3125 77.9967 24.3125C77.278 24.3125 76.6425 24.1823 76.0905 23.9219C75.5384 23.651 75.1061 23.1927 74.7936 22.5469C74.4811 21.8906 74.3248 21 74.3248 19.875V2.75Z" fill="#F0CF68"/>
<path d="M85.6842 0V24H83.8248V0H85.6842Z" fill="#F0CF68"/>
<path d="M97.3248 24.3125C96.2207 24.3125 95.205 24.1094 94.278 23.7031C93.3613 23.2969 92.5592 22.724 91.8717 21.9844C91.1946 21.2448 90.6686 20.3698 90.2936 19.3594C89.929 18.3385 89.7467 17.224 89.7467 16.0156V15.3438C89.7467 14.0417 89.9394 12.8646 90.3248 11.8125C90.7103 10.7604 91.2415 9.85938 91.9186 9.10938C92.5957 8.35938 93.3665 7.78646 94.2311 7.39062C95.1061 6.98438 96.0228 6.78125 96.9811 6.78125C98.054 6.78125 99.0071 6.97396 99.8405 7.35938C100.674 7.73438 101.372 8.27083 101.934 8.96875C102.507 9.65625 102.939 10.474 103.231 11.4219C103.523 12.3594 103.669 13.3958 103.669 14.5312V15.6719H90.8717V14.0781H101.809V13.8594C101.788 12.9115 101.596 12.026 101.231 11.2031C100.877 10.3698 100.346 9.69271 99.6373 9.17188C98.929 8.65104 98.0436 8.39062 96.9811 8.39062C96.1894 8.39062 95.4603 8.55729 94.7936 8.89062C94.1373 9.22396 93.5696 9.70312 93.0905 10.3281C92.6217 10.9427 92.2571 11.6771 91.9967 12.5312C91.7467 13.375 91.6217 14.3125 91.6217 15.3438V16.0156C91.6217 16.9531 91.7571 17.8281 92.028 18.6406C92.3092 19.4427 92.705 20.151 93.2155 20.7656C93.7363 21.3802 94.3509 21.8594 95.0592 22.2031C95.7675 22.5469 96.5488 22.7188 97.403 22.7188C98.403 22.7188 99.2884 22.5365 100.059 22.1719C100.83 21.7969 101.523 21.2083 102.137 20.4062L103.309 21.3125C102.945 21.8542 102.486 22.3542 101.934 22.8125C101.393 23.2708 100.742 23.6354 99.9811 23.9062C99.2207 24.1771 98.3353 24.3125 97.3248 24.3125Z" fill="#F0CF68"/>
<path d="M128.762 22.3594V24H116.965V22.3594H128.762ZM117.528 1.25V24H115.606V1.25H117.528Z" fill="#F0CF68"/>
<path d="M138.575 24.3125C137.471 24.3125 136.455 24.1094 135.528 23.7031C134.611 23.2969 133.809 22.724 133.122 21.9844C132.445 21.2448 131.919 20.3698 131.544 19.3594C131.179 18.3385 130.997 17.224 130.997 16.0156V15.3438C130.997 14.0417 131.189 12.8646 131.575 11.8125C131.96 10.7604 132.491 9.85938 133.169 9.10938C133.846 8.35938 134.616 7.78646 135.481 7.39062C136.356 6.98438 137.273 6.78125 138.231 6.78125C139.304 6.78125 140.257 6.97396 141.09 7.35938C141.924 7.73438 142.622 8.27083 143.184 8.96875C143.757 9.65625 144.189 10.474 144.481 11.4219C144.773 12.3594 144.919 13.3958 144.919 14.5312V15.6719H132.122V14.0781H143.059V13.8594C143.038 12.9115 142.846 12.026 142.481 11.2031C142.127 10.3698 141.596 9.69271 140.887 9.17188C140.179 8.65104 139.294 8.39062 138.231 8.39062C137.439 8.39062 136.71 8.55729 136.044 8.89062C135.387 9.22396 134.82 9.70312 134.34 10.3281C133.872 10.9427 133.507 11.6771 133.247 12.5312C132.997 13.375 132.872 14.3125 132.872 15.3438V16.0156C132.872 16.9531 133.007 17.8281 133.278 18.6406C133.559 19.4427 133.955 20.151 134.465 20.7656C134.986 21.3802 135.601 21.8594 136.309 22.2031C137.018 22.5469 137.799 22.7188 138.653 22.7188C139.653 22.7188 140.538 22.5365 141.309 22.1719C142.08 21.7969 142.773 21.2083 143.387 20.4062L144.559 21.3125C144.195 21.8542 143.736 22.3542 143.184 22.8125C142.643 23.2708 141.991 23.6354 141.231 23.9062C140.471 24.1771 139.585 24.3125 138.575 24.3125Z" fill="#F0CF68"/>
<path d="M150.372 10.5938V24H148.497V7.09375H150.294L150.372 10.5938ZM150.028 14.5L149.122 14.0312C149.184 13.0312 149.372 12.0938 149.684 11.2188C150.007 10.3438 150.455 9.57292 151.028 8.90625C151.601 8.23958 152.288 7.71875 153.09 7.34375C153.893 6.96875 154.804 6.78125 155.825 6.78125C156.648 6.78125 157.393 6.89583 158.059 7.125C158.736 7.34375 159.309 7.69271 159.778 8.17188C160.257 8.64062 160.627 9.25521 160.887 10.0156C161.148 10.776 161.278 11.6875 161.278 12.75V24H159.419V12.8125C159.419 11.6875 159.241 10.8073 158.887 10.1719C158.544 9.53646 158.059 9.08333 157.434 8.8125C156.82 8.54167 156.106 8.40625 155.294 8.40625C154.335 8.40625 153.523 8.60417 152.856 9C152.2 9.38542 151.663 9.89062 151.247 10.5156C150.84 11.1302 150.538 11.7917 150.34 12.5C150.143 13.1979 150.038 13.8646 150.028 14.5ZM161.262 13.0312L160.012 13.0625C160.064 12.2396 160.252 11.4531 160.575 10.7031C160.908 9.95312 161.361 9.28646 161.934 8.70312C162.507 8.10938 163.189 7.64062 163.981 7.29688C164.783 6.95312 165.684 6.78125 166.684 6.78125C167.559 6.78125 168.34 6.90104 169.028 7.14062C169.715 7.36979 170.294 7.73958 170.762 8.25C171.241 8.75 171.606 9.39062 171.856 10.1719C172.106 10.9531 172.231 11.8906 172.231 12.9844V24H170.356V12.9688C170.356 11.7708 170.179 10.8438 169.825 10.1875C169.481 9.52083 169.002 9.05729 168.387 8.79688C167.773 8.53646 167.054 8.40625 166.231 8.40625C165.419 8.41667 164.705 8.56771 164.09 8.85938C163.476 9.14062 162.96 9.51562 162.544 9.98438C162.137 10.4427 161.825 10.9375 161.606 11.4688C161.398 12 161.283 12.5208 161.262 13.0312Z" fill="#F0CF68"/>
<path d="M175.95 15.8125V15.2969C175.95 14.0677 176.127 12.9323 176.481 11.8906C176.835 10.849 177.34 9.94792 177.997 9.1875C178.663 8.42708 179.46 7.83854 180.387 7.42188C181.314 6.99479 182.346 6.78125 183.481 6.78125C184.627 6.78125 185.663 6.99479 186.59 7.42188C187.518 7.83854 188.314 8.42708 188.981 9.1875C189.648 9.94792 190.158 10.849 190.512 11.8906C190.866 12.9323 191.044 14.0677 191.044 15.2969V15.8125C191.044 17.0417 190.866 18.1771 190.512 19.2188C190.158 20.25 189.648 21.1458 188.981 21.9062C188.325 22.6667 187.533 23.2604 186.606 23.6875C185.679 24.1042 184.648 24.3125 183.512 24.3125C182.366 24.3125 181.33 24.1042 180.403 23.6875C179.476 23.2604 178.679 22.6667 178.012 21.9062C177.346 21.1458 176.835 20.25 176.481 19.2188C176.127 18.1771 175.95 17.0417 175.95 15.8125ZM177.809 15.2969V15.8125C177.809 16.7396 177.934 17.6198 178.184 18.4531C178.434 19.276 178.799 20.0104 179.278 20.6562C179.757 21.2917 180.351 21.7917 181.059 22.1562C181.768 22.5208 182.585 22.7031 183.512 22.7031C184.429 22.7031 185.236 22.5208 185.934 22.1562C186.643 21.7917 187.236 21.2917 187.715 20.6562C188.195 20.0104 188.554 19.276 188.794 18.4531C189.044 17.6198 189.169 16.7396 189.169 15.8125V15.2969C189.169 14.3802 189.044 13.5104 188.794 12.6875C188.554 11.8646 188.189 11.1302 187.7 10.4844C187.221 9.83854 186.627 9.32812 185.919 8.95312C185.21 8.57812 184.398 8.39062 183.481 8.39062C182.564 8.39062 181.752 8.57812 181.044 8.95312C180.346 9.32812 179.752 9.83854 179.262 10.4844C178.783 11.1302 178.419 11.8646 178.169 12.6875C177.929 13.5104 177.809 14.3802 177.809 15.2969Z" fill="#F0CF68"/>
<path d="M196.778 10.7031V24H194.919V7.09375H196.7L196.778 10.7031ZM196.356 14.5L195.528 14.0312C195.59 13.0312 195.794 12.0938 196.137 11.2188C196.481 10.3438 196.945 9.57292 197.528 8.90625C198.122 8.23958 198.814 7.71875 199.606 7.34375C200.408 6.96875 201.294 6.78125 202.262 6.78125C203.106 6.78125 203.861 6.89583 204.528 7.125C205.195 7.35417 205.762 7.71875 206.231 8.21875C206.7 8.71875 207.054 9.35938 207.294 10.1406C207.544 10.9219 207.669 11.875 207.669 13V24H205.794V12.9844C205.794 11.8177 205.632 10.9062 205.309 10.25C204.986 9.58333 204.528 9.10938 203.934 8.82812C203.34 8.54688 202.637 8.40625 201.825 8.40625C200.929 8.40625 200.143 8.60417 199.465 9C198.799 9.38542 198.236 9.89062 197.778 10.5156C197.33 11.1302 196.986 11.7917 196.747 12.5C196.507 13.1979 196.377 13.8646 196.356 14.5Z" fill="#F0CF68"/>
</svg>
